<?xml version="1.0" encoding="UTF-8"?>
<!DOCTYPE svg PUBLIC "-//W3C//DTD SVG 1.1//EN" "http://www.w3.org/Graphics/SVG/1.1/DTD/svg11.dtd">
<!-- Creator: CorelDRAW 2021 (64-Bit) -->
<svg xmlns="http://www.w3.org/2000/svg" xml:space="preserve" width="50mm" height="35mm" version="1.1" style="shape-rendering:geometricPrecision; text-rendering:geometricPrecision; image-rendering:optimizeQuality; fill-rule:evenodd; clip-rule:evenodd"
viewBox="0 0 5000 3500"
 xmlns:xlink="http://www.w3.org/1999/xlink"
 xmlns:xodm="http://www.corel.com/coreldraw/odm/2003">
 <defs>
  <style type="text/css">
   <![CDATA[
    .fil0 {fill:#FC810F}
   ]]>
  </style>
   <clipPath id="id0">
    <rect x="-12190.99" y="-1064.37" width="9426.62" height="5891.64"/>
   </clipPath>
 </defs>
 <g id="Capa_x0020_1">
  <metadata id="CorelCorpID_0Corel-Layer"/>
  <g style="clip-path:url(#id0)">
   <image x="-12190.99" y="-1064.37" width="9426.63" height="5891.64" xlink:href="icono_Images\icono_ImgID1.png"/>
  </g>
  <g id="_2068603758112">
   <path class="fil0" d="M2960.4 177.2c-242.33,36.59 -220.01,116.28 -290.63,309.43 -259.09,726.24 -531.18,1455.22 -779.18,2184.56 -49.79,146.45 -112.53,288.82 -151.99,440.62 -27.77,106.81 -10.89,142.65 74.28,185.88 134.23,68.13 350.13,58.17 451.42,-55.38 70.86,-79.43 877.21,-2356.55 1019.04,-2834.68 27.75,-93.55 -33.09,-166.59 -83.14,-197.22 -61.86,-37.85 -160.09,-45.24 -239.8,-33.21z"/>
   <path class="fil0" d="M868.84 1801.7c127.3,-129.75 789.83,-295.8 882,-465.93 59.42,-109.68 60.05,-325.41 -43.3,-412.84 -68.91,-58.29 -126.86,-14.85 -193.96,17.84l-1075.65 533.91c-137.49,68.03 -234.9,106.36 -235.77,305.76 -0.32,73.13 19.12,157.64 47.67,215.28 46.91,94.73 1076.29,568.23 1237.75,648.79 57.55,28.09 116.29,77.35 202.11,43.19 154.93,-61.67 84.92,-386.57 69.01,-422.32 -56.5,-126.92 -733.84,-391.28 -889.86,-463.68z"/>
   <path class="fil0" d="M4116.89 1799.34c-25.87,24.15 -643.32,309.44 -725.54,346.63 -143.64,64.97 -209.2,158.22 -190.66,345.19 7.96,80.21 39.55,150.29 83.33,185.06 69.48,55.18 123.13,9.53 189.15,-22.48 362.86,-175.93 722.64,-360.82 1086.24,-534.5 145.15,-69.33 234.95,-112.61 225.5,-319.93 -11.36,-249.07 -46.1,-220.53 -222.04,-313.85 -338.29,-179.43 -732.11,-364.62 -1080.69,-539.22 -56.55,-28.32 -123.96,-77.71 -189.61,-35.05 -124.61,80.98 -101.09,288.49 -58.63,411.42 35.12,101.71 60.93,84.08 147.79,129.51l735.16 347.22z"/>
  </g>
 </g>
</svg>
